<svg width="37" height="37" viewBox="0 0 37 37" fill="none" xmlns="http://www.w3.org/2000/svg">
<circle cx="18.5" cy="18.5" r="18.5" fill="#D9D9D9"/>
<path d="M5.40569 18.888H10.0137L10.1257 19.336H5.16569L5.40569 18.888ZM13.9017 22.808C13.955 22.808 13.9817 22.84 13.9817 22.904C13.9817 22.968 13.955 23 13.9017 23C13.6884 23 13.3577 22.9893 12.9097 22.968C12.4404 22.9467 12.1044 22.936 11.9017 22.936C11.635 22.936 11.3097 22.9467 10.9257 22.968C10.563 22.9893 10.275 23 10.0617 23C10.019 23 9.99769 22.968 9.99769 22.904C9.99769 22.84 10.019 22.808 10.0617 22.808C10.339 22.808 10.5364 22.7813 10.6537 22.728C10.7817 22.664 10.8457 22.5573 10.8457 22.408C10.8457 22.2267 10.739 21.9227 10.5257 21.496L7.27769 15.08L8.06169 13.704L4.87769 20.728C4.73902 21.0373 4.66969 21.3253 4.66969 21.592C4.66969 21.976 4.80302 22.2747 5.06969 22.488C5.34702 22.7013 5.71502 22.808 6.17369 22.808C6.22702 22.808 6.25369 22.84 6.25369 22.904C6.25369 22.968 6.22702 23 6.17369 23C5.98169 23 5.70435 22.9893 5.34169 22.968C4.93635 22.9467 4.58435 22.936 4.28569 22.936C3.99769 22.936 3.65102 22.9467 3.24569 22.968C2.88302 22.9893 2.58969 23 2.36569 23C2.32302 23 2.30169 22.968 2.30169 22.904C2.30169 22.84 2.32302 22.808 2.36569 22.808C2.66435 22.808 2.91502 22.7493 3.11769 22.632C3.32035 22.504 3.52302 22.2853 3.72569 21.976C3.92835 21.656 4.16835 21.1867 4.44569 20.568L7.91769 12.936C7.93902 12.904 7.98702 12.888 8.06169 12.888C8.14702 12.888 8.19502 12.904 8.20569 12.936L12.2057 20.808C12.579 21.5653 12.8884 22.088 13.1337 22.376C13.379 22.664 13.635 22.808 13.9017 22.808ZM19.6108 14.6C19.6108 14.1307 19.4988 13.7627 19.2748 13.496C19.0615 13.2293 18.7788 13.096 18.4268 13.096C18.1281 13.096 17.9148 13.192 17.7868 13.384C17.6588 13.576 17.5948 13.864 17.5948 14.248C17.5948 15.336 18.0535 16.4827 18.9708 17.688C19.8881 18.8827 21.0028 19.976 22.3148 20.968C23.0188 21.4907 23.6428 21.9067 24.1868 22.216C24.7415 22.5253 25.1735 22.7227 25.4828 22.808C25.5255 22.8187 25.5415 22.856 25.5308 22.92C25.5308 22.9733 25.5148 23 25.4828 23H22.8588C22.6668 23 22.3788 22.8933 21.9948 22.68C21.6215 22.456 21.0721 22.0507 20.3468 21.464C19.5788 20.8453 18.8428 20.168 18.1388 19.432C17.4348 18.696 16.9068 18.0027 16.5548 17.352C16.4055 17.0533 16.2881 16.7707 16.2028 16.504C16.1281 16.2373 16.0908 15.944 16.0908 15.624C16.0908 14.76 16.3628 14.0507 16.9068 13.496C17.4615 12.9413 18.2135 12.664 19.1628 12.664C19.8241 12.664 20.3468 12.808 20.7308 13.096C21.1148 13.3733 21.3068 13.7627 21.3068 14.264C21.3068 14.6587 21.2001 15.0213 20.9868 15.352C20.7735 15.672 20.5068 15.96 20.1868 16.216C19.8668 16.472 19.4455 16.776 18.9228 17.128C18.3788 17.4907 17.9521 17.7947 17.6428 18.04C17.3441 18.2853 17.0828 18.5733 16.8588 18.904C16.6455 19.2347 16.5388 19.5973 16.5388 19.992C16.5388 20.408 16.6561 20.8027 16.8908 21.176C17.1361 21.5387 17.4828 21.8373 17.9308 22.072C18.3788 22.296 18.9015 22.408 19.4988 22.408C21.1948 22.408 22.0428 21.4 22.0428 19.384C22.0428 18.7653 21.9415 18.3173 21.7388 18.04C21.5361 17.752 21.2055 17.608 20.7468 17.608C20.7255 17.608 20.7095 17.576 20.6988 17.512C20.6988 17.448 20.7148 17.416 20.7468 17.416L24.5548 17.4C24.5868 17.4 24.6028 17.432 24.6028 17.496C24.6028 17.56 24.5868 17.592 24.5548 17.592C24.2348 17.592 23.9948 17.6293 23.8348 17.704C23.6855 17.768 23.5681 17.88 23.4828 18.04C23.4081 18.2 23.3228 18.456 23.2268 18.808C23.0028 19.576 22.7361 20.264 22.4268 20.872C22.1281 21.48 21.6375 22.0187 20.9548 22.488C20.2721 22.9573 19.3761 23.192 18.2668 23.192C17.5308 23.192 16.9121 23.0853 16.4108 22.872C15.9095 22.6587 15.5361 22.376 15.2908 22.024C15.0455 21.672 14.9228 21.2987 14.9228 20.904C14.9228 20.5413 15.0188 20.2053 15.2108 19.896C15.4028 19.576 15.6428 19.288 15.9308 19.032C16.2188 18.776 16.6028 18.4667 17.0828 18.104C17.6268 17.6987 18.0641 17.3413 18.3948 17.032C18.7361 16.7227 19.0241 16.3653 19.2588 15.96C19.4935 15.544 19.6108 15.0907 19.6108 14.6ZM28.1199 14.616C28.1199 15 28.2159 15.3413 28.4079 15.64C28.6106 15.9387 28.8559 16.2 29.1439 16.424C29.4319 16.648 29.8213 16.92 30.3119 17.24C30.8453 17.5813 31.2719 17.88 31.5919 18.136C31.9119 18.392 32.1839 18.7067 32.4079 19.08C32.6319 19.4427 32.7439 19.864 32.7439 20.344C32.7439 20.8987 32.5946 21.3947 32.2959 21.832C31.9973 22.2587 31.5813 22.5947 31.0479 22.84C30.5253 23.0747 29.9386 23.192 29.2879 23.192C28.8186 23.192 28.3173 23.128 27.7839 23C27.2613 22.8613 26.9093 22.712 26.7279 22.552C26.6746 22.5093 26.6319 22.472 26.5999 22.44C26.5786 22.3973 26.5679 22.3333 26.5679 22.248L26.5199 19.704V19.688C26.5199 19.6453 26.5466 19.624 26.5999 19.624C26.6533 19.6133 26.6853 19.6293 26.6959 19.672C27.0159 20.3227 27.2933 20.8507 27.5279 21.256C27.7733 21.6613 28.0773 22.0187 28.4399 22.328C28.8133 22.6373 29.2346 22.792 29.7039 22.792C30.1306 22.792 30.4826 22.68 30.7599 22.456C31.0373 22.2213 31.1759 21.8267 31.1759 21.272C31.1759 20.8027 31.0693 20.392 30.8559 20.04C30.6533 19.688 30.4026 19.3893 30.1039 19.144C29.8053 18.8987 29.3946 18.6053 28.8719 18.264C28.3599 17.9333 27.9599 17.6507 27.6719 17.416C27.3946 17.1813 27.1546 16.8987 26.9519 16.568C26.7493 16.2373 26.6479 15.848 26.6479 15.4C26.6479 14.8347 26.8079 14.36 27.1279 13.976C27.4586 13.5813 27.8799 13.2933 28.3919 13.112C28.9039 12.92 29.4426 12.824 30.0079 12.824C30.3813 12.824 30.7599 12.8613 31.1439 12.936C31.5279 13 31.8373 13.08 32.0719 13.176C32.1679 13.2187 32.2319 13.2667 32.2639 13.32C32.2959 13.3627 32.3119 13.4213 32.3119 13.496V15.848C32.3119 15.88 32.2853 15.9067 32.2319 15.928C32.1786 15.9387 32.1466 15.928 32.1359 15.896L32.0079 15.592C31.7413 14.92 31.4266 14.3493 31.0639 13.88C30.7119 13.4107 30.2159 13.176 29.5759 13.176C29.1493 13.176 28.7973 13.2987 28.5199 13.544C28.2533 13.7893 28.1199 14.1467 28.1199 14.616Z" fill="white"/>
</svg>
